<?xml version="1.0" encoding="UTF-8" standalone="no"?>
<svg xmlns:dc="http://purl.org/dc/elements/1.1/" xmlns:cc="http://creativecommons.org/ns#" xmlns:rdf="http://www.w3.org/1999/02/22-rdf-syntax-ns#" xmlns:svg="http://www.w3.org/2000/svg" xmlns="http://www.w3.org/2000/svg" xmlns:xlink="http://www.w3.org/1999/xlink" xmlns:sodipodi="http://sodipodi.sourceforge.net/DTD/sodipodi-0.dtd" xmlns:inkscape="http://www.inkscape.org/namespaces/inkscape" version="1.1" id="Layer_1" x="0px" y="0px" width="64px" height="64px" viewBox="0 0 64 64" enable-background="new 0 0 64 64" xml:space="preserve" inkscape:version="0.48.2 r9819" sodipodi:docname="wordpress-logo.svg"><metadata id="metadata15"><rdf:RDF><cc:Work rdf:about=""><dc:format>image/svg+xml</dc:format><dc:type rdf:resource="http://purl.org/dc/dcmitype/StillImage" /></cc:Work></rdf:RDF></metadata><defs id="defs13"><linearGradient inkscape:collect="always" xlink:href="#linearGradient44" id="linearGradient3083" gradientUnits="userSpaceOnUse" gradientTransform="matrix(0,-137.20602,-137.20602,0,189.3291,441.979)" spreadMethod="pad" x1="0" y1="0" x2="1" y2="0" /><linearGradient x1="0" y1="0" x2="1" y2="0" gradientUnits="userSpaceOnUse" gradientTransform="matrix(0,-137.20602,-137.20602,0,189.3291,441.979)" spreadMethod="pad" id="linearGradient44"><stop style="stop-opacity:1;stop-color:#f6691e" offset="0" id="stop46" /><stop style="stop-opacity:1;stop-color:#fa3a40" offset="1" id="stop48" /></linearGradient><linearGradient inkscape:collect="always" xlink:href="#linearGradient24" id="linearGradient3085" gradientUnits="userSpaceOnUse" gradientTransform="matrix(0,322.56415,-322.56415,0,173.18945,-3406.5225)" spreadMethod="pad" x1="0" y1="0" x2="1" y2="0" /><linearGradient x1="0" y1="0" x2="1" y2="0" gradientUnits="userSpaceOnUse" gradientTransform="matrix(0,322.56415,-322.56415,0,173.18945,-3406.5225)" spreadMethod="pad" id="linearGradient24"><stop style="stop-opacity:1;stop-color:#f6691e" offset="0" id="stop26" /><stop style="stop-opacity:1;stop-color:#faaf40" offset="1" id="stop28" /></linearGradient></defs><sodipodi:namedview pagecolor="#ffffff" bordercolor="#666666" borderopacity="1" objecttolerance="10" gridtolerance="10" guidetolerance="10" inkscape:pageopacity="0" inkscape:pageshadow="2" inkscape:window-width="1046" inkscape:window-height="788" id="namedview11" showgrid="false" inkscape:zoom="8.90625" inkscape:cx="32" inkscape:cy="32" inkscape:window-x="0" inkscape:window-y="0" inkscape:window-maximized="0" inkscape:current-layer="g5" /><style id="style3">.style0{fill:	#0074A2;}</style><g id="g5"><g id="g12" transform="matrix(0.10217865,0,0,-0.10217865,-3.526158,74.321818)"><g id="g14"><g id="g20"><g id="g22"><path d="m 170.635,547.232 c 57.36,-1.362 103.45,-48.251 103.45,-105.943 l 0,0 c 0,-58.547 -47.46,-106.007 -106.011,-106.007 l 0,0 c -58.544,0 -106.006,47.46 -106.006,106.007 l 0,0 c 0,39.454 21.572,73.846 53.545,92.1 l 0,0 C 74.855,512.458 46.954,470.029 46.954,421.061 l 0,0 c 0,-69.718 56.519,-126.237 126.235,-126.237 l 0,0 c 69.717,0 126.236,56.519 126.236,126.237 l 0,0 c 0,69.718 -56.519,126.234 -126.236,126.234 l 0,0 c -0.858,0 -1.702,-0.045 -2.554,-0.063" style="fill:url(#linearGradient3085);stroke:none" id="path30" inkscape:connector-curvature="0" /></g></g></g></g><g id="g32" transform="matrix(0.10217865,0,0,-0.10217865,-3.526158,74.321818)"><g id="g34"><g id="g40"><g id="g42"><path d="m 63.091,408.355 c 0,-48.967 27.904,-91.392 68.659,-112.328 l 0,0 c -31.973,18.254 -53.546,52.646 -53.546,92.1 l 0,0 c 0,58.547 47.46,106.007 106.012,106.007 l 0,0 c 58.546,0 106.007,-47.46 106.007,-106.007 l 0,0 c 0,-57.687 -46.091,-104.578 -103.453,-105.946 l 0,0 c 0.854,-0.015 1.701,-0.06 2.555,-0.06 l 0,0 c 69.721,0 126.242,56.518 126.242,126.234 l 0,0 c 0,69.721 -56.521,126.24 -126.242,126.24 l 0,0 c -69.718,0 -126.234,-56.519 -126.234,-126.24" style="fill:url(#linearGradient3083);stroke:none" id="path50" inkscape:connector-curvature="0" /></g></g></g></g><text id="text52" x="31.633108" y="28.090099" sodipodi:linespacing="94%" style="font-size:1.22614372px;line-height:93.99999976%"><tspan style="font-size:8.17429256px;font-variant:normal;font-weight:500;font-stretch:normal;line-height:93.99999976%;writing-mode:lr-tb;fill:#d64901;fill-opacity:1;fill-rule:nonzero;stroke:none;font-family:AvantGardeMdITCTT;-inkscape-font-specification:AvantGardeMdITCTT" sodipodi:role="line" x="31.633108" y="28.090099" id="tspan3037">Life</tspan><tspan style="font-size:8.17429256px;font-variant:normal;font-weight:500;font-stretch:normal;line-height:93.99999976%;writing-mode:lr-tb;fill:#d64901;fill-opacity:1;fill-rule:nonzero;stroke:none;font-family:AvantGardeMdITCTT;-inkscape-font-specification:AvantGardeMdITCTT" sodipodi:role="line" x="31.633108" y="35.773933" id="tspan3041">Science</tspan><tspan style="font-size:8.17429256px;font-variant:normal;font-weight:500;font-stretch:normal;line-height:93.99999976%;writing-mode:lr-tb;fill:#d64901;fill-opacity:1;fill-rule:nonzero;stroke:none;font-family:AvantGardeMdITCTT;-inkscape-font-specification:AvantGardeMdITCTT" sodipodi:role="line" x="31.633108" y="43.457767" id="tspan3043">Room</tspan></text>
</g></svg>